<svg width="668" height="668" viewBox="0 0 668 668" fill="none"
  xmlns="http://www.w3.org/2000/svg">
  <g opacity="0.2">
    <path d="M636.845 334.495L333.499 31.1494L30.1534 334.495L333.499 637.841L636.845 334.495Z" stroke="#70BAAE" stroke-miterlimit="10"/>
    <path d="M596.195 182.812L181.823 71.7866L70.7983 486.158L485.169 597.183L596.195 182.812Z" stroke="#70BAAE" stroke-miterlimit="10"/>
    <path d="M485.159 71.7995L70.7876 182.825L181.813 597.196L596.184 486.171L485.159 71.7995Z" stroke="#70BAAE" stroke-miterlimit="10"/>
    <path d="M334 638C501.894 638 638 501.895 638 334C638 166.105 501.894 30 334 30C166.105 30 29.9998 166.105 29.9998 334C29.9998 501.895 166.105 638 334 638Z" stroke="#70BAAE" stroke-miterlimit="10"/>
    <path d="M334.001 528C441.144 528 528.001 441.143 528.001 334C528.001 226.857 441.144 140 334.001 140C226.857 140 140.001 226.857 140.001 334C140.001 441.143 226.857 528 334.001 528Z" stroke="#70BAAE" stroke-miterlimit="10"/>
    <path d="M334.001 528C441.144 528 528.001 441.143 528.001 334C528.001 226.857 441.144 140 334.001 140C226.857 140 140.001 226.857 140.001 334C140.001 441.143 226.857 528 334.001 528Z" stroke="#70BAAE" stroke-miterlimit="10"/>
    <path d="M333.999 496C423.469 496 495.999 423.47 495.999 334C495.999 244.53 423.469 172 333.999 172C244.529 172 171.999 244.53 171.999 334C171.999 423.47 244.529 496 333.999 496Z" stroke="#70BAAE" stroke-miterlimit="10"/>
    <path d="M334 667C517.911 667 667 517.911 667 334C667 150.089 517.911 1 334 1C150.089 1 1 150.089 1 334C1 517.911 150.089 667 334 667Z" stroke="#70BAAE" stroke-miterlimit="10"/>
    <path d="M334.501 174.5L195.901 414.5H473.101L334.501 174.5Z" stroke="#70BAAE" stroke-miterlimit="10"/>
    <path d="M334.501 174.5L195.901 414.5H473.101L334.501 174.5Z" stroke="#70BAAE" stroke-miterlimit="10"/>
    <path d="M254.7 195.6V472.7L494.7 334.2L254.7 195.6Z" stroke="#70BAAE" stroke-miterlimit="10"/>
    <path d="M196.099 253.8L334.699 493.8L473.199 253.8H196.099Z" stroke="#70BAAE" stroke-miterlimit="10"/>
    <path d="M174.499 333.5L414.499 472.1V194.9L174.499 333.5Z" stroke="#70BAAE" stroke-miterlimit="10"/>
  </g>
</svg>
