<svg xmlns="http://www.w3.org/2000/svg" width="33" height="50" viewBox="0 0 33 50" fill="none">
  <g clip-path="url(#clip0_1983_8391)">
    <path d="M32.9777 2.92502C33.2773 5.62985 30.4332 11.6813 30.4332 11.6813C29.3234 13.7626 25.6986 17.7693 25.6986 17.7693C24.4833 18.7776 22.4044 21.9389 22.4044 21.9389C22.1653 22.2717 25.9588 22.7745 25.9588 22.7745C30.7412 23.0933 30.7595 24.242 30.7595 24.242C31.9228 24.8768 30.1716 27.9496 30.1716 27.9496L24.9531 34.5389L16.2534 44.1519L11.184 49.9955C10.3401 49.0265 11.2909 46.955 11.2909 46.955C11.0982 45.5619 14.6977 40.2365 14.6977 40.2365C14.5218 39.582 20.8768 32.2315 20.8768 32.2315C23.7027 29.4663 23.0092 27.6729 23.0092 27.6729C23.6534 26.9216 18.013 24.4836 18.013 24.4836C14.8482 22.5736 15.5712 21.5737 15.5712 21.5737C15.3897 20.7564 18.6305 16.5868 18.6305 16.5868C18.9976 16.8297 23.9122 10.5747 23.9122 10.5747C25.8885 6.34748 25.4693 5.94021 25.4693 5.94021C23.569 5.6481 22.1681 5.42902 22.1681 5.42902C21.6659 5.02737 19.2832 5.07371 19.2832 5.07371L12.8649 5.11584C7.86024 5.7099 6.90798 7.53558 6.90798 7.53558C3.90772 9.81208 4.21999 13.0084 4.21999 13.0084C4.19186 15.9661 7.81523 16.15 7.81523 16.15C8.68635 16.0911 9.52687 15.8056 10.2533 15.322C10.9797 14.8384 11.5668 14.1735 11.9562 13.3932C12.3782 9.81208 11.2107 8.84727 11.2107 8.84727L10.5257 7.46537L10.935 7.37408L15.5205 10.5718C18.9371 12.8062 18.1452 14.6291 18.1452 14.6291C18.4955 15.6122 15.332 18.2159 13.7117 19.3141C12.0913 20.4123 9.71975 21.1159 9.71975 21.1159C6.71246 22.9809 3.76566 19.4306 3.76566 19.4306C2.26615 17.9057 1.05991 16.1187 0.206988 14.1586C-0.734021 12.288 1.83863 9.19977 1.83863 9.19977C3.27898 7.03703 8.4496 2.41804 8.4496 2.41804L9.02208 2.2439L19.7881 1.70742C23.2455 1.80573 27.3373 0.741214 27.3373 0.741214C33.629 -1.76841 32.9777 2.92502 32.9777 2.92502Z" fill="#70BAAE"/>
  </g>
  <defs>
    <clipPath id="clip0_1983_8391">
      <rect width="33" height="50" fill="white"/>
    </clipPath>
  </defs>
</svg>