<svg width="668" height="668" viewBox="0 0 668 668" fill="none"
  xmlns="http://www.w3.org/2000/svg">
  <g opacity="0.2">
    <path d="M636.846 334.495L333.5 31.1494L30.1541 334.495L333.5 637.841L636.846 334.495Z" stroke="#70BAAE" stroke-miterlimit="10"/>
    <path d="M596.195 182.812L181.824 71.7871L70.799 486.158L485.17 597.183L596.195 182.812Z" stroke="#70BAAE" stroke-miterlimit="10"/>
    <path d="M485.158 71.7995L70.7871 182.825L181.812 597.196L596.183 486.171L485.158 71.7995Z" stroke="#70BAAE" stroke-miterlimit="10"/>
    <path d="M334 638C501.895 638 638 501.895 638 334C638 166.105 501.895 30 334 30C166.105 30 30 166.105 30 334C30 501.895 166.105 638 334 638Z" stroke="#70BAAE" stroke-miterlimit="10"/>
    <path d="M334 528C441.143 528 528 441.143 528 334C528 226.857 441.143 140 334 140C226.857 140 140 226.857 140 334C140 441.143 226.857 528 334 528Z" stroke="#70BAAE" stroke-miterlimit="10"/>
    <path d="M334 528C441.143 528 528 441.143 528 334C528 226.857 441.143 140 334 140C226.857 140 140 226.857 140 334C140 441.143 226.857 528 334 528Z" stroke="#70BAAE" stroke-miterlimit="10"/>
    <path d="M334 496C423.47 496 496 423.47 496 334C496 244.53 423.47 172 334 172C244.53 172 172 244.53 172 334C172 423.47 244.53 496 334 496Z" stroke="#70BAAE" stroke-miterlimit="10"/>
    <path d="M334 667C517.911 667 667 517.911 667 334C667 150.089 517.911 1 334 1C150.089 1 1 150.089 1 334C1 517.911 150.089 667 334 667Z" stroke="#70BAAE" stroke-miterlimit="10"/>
    <path d="M334.5 174.5L195.9 414.5H473.1L334.5 174.5Z" stroke="#70BAAE" stroke-miterlimit="10"/>
    <path d="M334.5 174.5L195.9 414.5H473.1L334.5 174.5Z" stroke="#70BAAE" stroke-miterlimit="10"/>
    <path d="M254.7 195.6V472.7L494.7 334.2L254.7 195.6Z" stroke="#70BAAE" stroke-miterlimit="10"/>
    <path d="M196.1 253.8L334.7 493.8L473.2 253.8H196.1Z" stroke="#70BAAE" stroke-miterlimit="10"/>
    <path d="M174.5 333.5L414.5 472.1V194.9L174.5 333.5Z" stroke="#70BAAE" stroke-miterlimit="10"/>
  </g>
  <g clip-path="url(#clip0_1983_8077)">
    <path d="M549.79 174.134C543.413 200.924 495.51 248.79 495.51 248.79C477.776 264.8 429.39 290.511 429.39 290.511C414.313 295.94 383.612 318.908 383.612 318.908C380.185 321.257 414.774 339.074 414.774 339.074C459.454 358.536 455.703 369.54 455.703 369.54C464.666 379.58 437.404 402.831 437.404 402.831L364.939 447.665L248.823 509.34L180.334 547.584C175.569 535.456 191.749 518.993 191.749 518.993C194.666 505.063 247.316 466.706 247.316 466.706C247.87 459.87 333.813 411.689 333.813 411.689C370.309 395.059 369.802 375.597 369.802 375.597C378.536 370.654 332.886 328.062 332.886 328.062C309.125 299.002 319.462 291.962 319.462 291.962C320.519 283.554 365.786 254.973 365.786 254.973C368.469 258.548 436.884 215.854 436.884 215.854C470.245 182.381 467.626 177.063 467.626 177.063C450.437 167.754 437.778 160.856 437.778 160.856C434.345 155.306 411.382 147.564 411.382 147.564L349.812 125.921C299.884 114.391 284.531 128.508 284.531 128.508C248.036 139.885 240.1 171.4 240.1 171.4C229.722 199.471 263.771 213.668 263.771 213.668C272.309 216.099 281.329 216.267 289.934 214.156C298.54 212.045 306.431 207.728 312.825 201.635C329.103 168.977 321.227 155.778 321.227 155.778L319.394 140.264L323.624 140.801L356.58 187.005C381.642 220.02 367.833 234.661 367.833 234.661C367.825 245.227 328.65 259.16 309.389 264.054C290.127 268.948 265.026 267.504 265.026 267.504C229.87 274.938 213.802 231.005 213.802 231.005C204.662 211.33 199.226 190.168 197.762 168.571C195.15 147.523 230.326 126.947 230.326 126.947C251.503 111.296 316.776 85.063 316.776 85.063L322.85 85.3706L427.72 117.237C460.473 130.048 503.272 133.963 503.272 133.963C572.065 131.67 549.79 174.134 549.79 174.134Z" fill="#122824"/>
  </g>
  <defs>
    <clipPath id="clip0_1983_8077">
      <rect width="335.549" height="505.937" fill="white" transform="translate(244.174 33.0103) rotate(19.7412)"/>
    </clipPath>
  </defs>
</svg>
