<svg xmlns="http://www.w3.org/2000/svg" width="24" height="24" viewBox="0 0 24 24" fill="none">
  <path fill-rule="evenodd" clip-rule="evenodd" d="M12 0C5.37258 0 0 5.37258 0 12C0 18.6274 5.37258 24 12 24C18.6274 24 24 18.6274 24 12C24 5.37258 18.6274 0 12 0ZM17.169 9.33496H13.7793V8.36382H17.169V9.33496ZM16.8701 10.1501C17.2788 10.3298 17.6152 10.6149 17.8801 11.004C18.1217 11.347 18.2767 11.7449 18.3474 12.1971C18.3888 12.4614 18.4054 12.8445 18.3986 13.3427H14.1367C14.1623 13.9211 14.364 14.3272 14.7493 14.5596C14.9826 14.7044 15.2633 14.7772 15.593 14.7772C15.9399 14.7772 16.2236 14.6888 16.4411 14.5128C16.5608 14.4171 16.6662 14.2849 16.7565 14.1156H18.3181C18.2767 14.4572 18.087 14.8054 17.7514 15.1588C17.2276 15.7193 16.4938 16 15.5508 16C14.7719 16 14.0848 15.7639 13.491 15.2902C12.8942 14.8172 12.5977 14.0466 12.5977 12.9804C12.5977 11.9803 12.8663 11.2133 13.4029 10.6795C13.941 10.1472 14.6372 9.87915 15.4944 9.87915C16.0039 9.87915 16.4622 9.96973 16.8701 10.1501ZM11.8348 10.0225C11.8348 9.55991 11.7136 9.16343 11.4721 8.83155C11.0694 8.29104 10.3868 8.01411 9.42201 8H5.59961V15.8032H9.16387C9.56575 15.8032 9.93753 15.7691 10.2815 15.6986C10.6254 15.6273 10.9227 15.4974 11.1748 15.3065C11.3991 15.1402 11.5857 14.9353 11.7347 14.6925C11.9703 14.3258 12.0877 13.9107 12.0877 13.4482C12.0877 12.9997 11.9846 12.6181 11.7799 12.3048C11.5729 11.9907 11.2689 11.7613 10.8655 11.6158C11.1311 11.4821 11.3321 11.3336 11.4691 11.1718C11.7136 10.8822 11.8348 10.4984 11.8348 10.0225Z" fill="#70BAAE"/>
  <path fill-rule="evenodd" clip-rule="evenodd" d="M7.17676 9.35498V11.0767H9.10038C9.4428 11.0767 9.72201 11.0121 9.93725 10.883C10.151 10.7538 10.2586 10.5251 10.2586 10.1984C10.2586 9.83387 10.1171 9.59405 9.83415 9.47674C9.58881 9.39582 9.27723 9.35498 8.89868 9.35498H7.17676ZM14.5827 11.4539C14.3667 11.6737 14.2305 11.9714 14.1748 12.3471H16.8111C16.7833 11.9462 16.6463 11.6432 16.404 11.4346C16.1586 11.2275 15.8568 11.1243 15.4956 11.1243C15.1043 11.1243 14.7987 11.2341 14.5827 11.4539ZM7.17676 14.449V12.3679H9.12446C9.46312 12.3708 9.72728 12.4154 9.91543 12.5C10.2518 12.6522 10.4189 12.9306 10.4189 13.3375C10.4189 13.8171 10.2458 14.1408 9.89887 14.3116C9.70847 14.4029 9.44055 14.449 9.09737 14.449H7.17676Z" fill="#70BAAE"/>
</svg>