<svg xmlns="http://www.w3.org/2000/svg" width="24" height="24" viewBox="0 0 24 24" fill="none">
  <path fill-rule="evenodd" clip-rule="evenodd" d="M12 0C5.37258 0 0 5.37258 0 12C0 18.6274 5.37258 24 12 24C18.6274 24 24 18.6274 24 12C24 5.37258 18.6274 0 12 0ZM9.36125 5.63867C10.0439 5.6076 10.2621 5.6 12.0002 5.6H11.9982C13.7369 5.6 13.9542 5.6076 14.6369 5.63867C15.3182 5.66987 15.7836 5.77773 16.1916 5.936C16.6129 6.09934 16.9689 6.31801 17.3249 6.67401C17.6809 7.02975 17.8996 7.38682 18.0636 7.80776C18.2209 8.21469 18.3289 8.67976 18.3609 9.3611C18.3916 10.0438 18.3996 10.2619 18.3996 12.0001C18.3996 13.7382 18.3916 13.9558 18.3609 14.6385C18.3289 15.3196 18.2209 15.7848 18.0636 16.1918C17.8996 16.6126 17.6809 16.9697 17.3249 17.3255C16.9693 17.6815 16.6128 17.9007 16.192 18.0641C15.7848 18.2224 15.3192 18.3303 14.6378 18.3615C13.9552 18.3925 13.7377 18.4001 11.9994 18.4001C10.2614 18.4001 10.0434 18.3925 9.36071 18.3615C8.67951 18.3303 8.2143 18.2224 7.8071 18.0641C7.38643 17.9007 7.02936 17.6815 6.67375 17.3255C6.31788 16.9697 6.09921 16.6126 5.93561 16.1917C5.77748 15.7848 5.66961 15.3197 5.63828 14.6384C5.60734 13.9557 5.59961 13.7382 5.59961 12.0001C5.59961 10.2619 5.60761 10.0436 5.63814 9.36097C5.66881 8.6799 5.77681 8.21469 5.93548 7.80762C6.09948 7.38682 6.31815 7.02975 6.67415 6.67401C7.02989 6.31814 7.38696 6.09947 7.8079 5.936C8.21484 5.77773 8.67991 5.66987 9.36125 5.63867Z" fill="#70BAAE"/>
  <path fill-rule="evenodd" clip-rule="evenodd" d="M11.4265 6.75355C11.538 6.75338 11.6579 6.75343 11.7873 6.75349L12.0006 6.75355C13.7094 6.75355 13.912 6.75969 14.5868 6.79035C15.2108 6.81889 15.5495 6.92315 15.7751 7.01076C16.0737 7.12676 16.2867 7.26543 16.5105 7.48943C16.7345 7.71343 16.8732 7.92677 16.9895 8.22544C17.0771 8.45077 17.1815 8.78944 17.2099 9.41345C17.2405 10.0881 17.2472 10.2908 17.2472 11.9988C17.2472 13.7068 17.2405 13.9095 17.2099 14.5842C17.1813 15.2082 17.0771 15.5468 16.9895 15.7722C16.8735 16.0709 16.7345 16.2835 16.5105 16.5074C16.2865 16.7314 16.0739 16.8701 15.7751 16.9861C15.5497 17.0741 15.2108 17.1781 14.5868 17.2066C13.9121 17.2373 13.7094 17.2439 12.0006 17.2439C10.2917 17.2439 10.0891 17.2373 9.41447 17.2066C8.79046 17.1778 8.45179 17.0735 8.22606 16.9859C7.92739 16.8699 7.71405 16.7313 7.49005 16.5073C7.26604 16.2833 7.12738 16.0705 7.01111 15.7716C6.92351 15.5463 6.81911 15.2076 6.79071 14.5836C6.76004 13.909 6.75391 13.7063 6.75391 11.9972C6.75391 10.2881 6.76004 10.0865 6.79071 9.41185C6.81924 8.78784 6.92351 8.44917 7.01111 8.22357C7.12711 7.9249 7.26604 7.71156 7.49005 7.48756C7.71405 7.26356 7.92739 7.12489 8.22606 7.00862C8.45166 6.92062 8.79046 6.81662 9.41447 6.78795C10.0049 6.76129 10.2337 6.75329 11.4265 6.75195V6.75355ZM15.4164 7.8162C14.9924 7.8162 14.6484 8.15981 14.6484 8.58394C14.6484 9.00795 14.9924 9.35195 15.4164 9.35195C15.8405 9.35195 16.1845 9.00795 16.1845 8.58394C16.1845 8.15994 15.8405 7.81594 15.4164 7.81594V7.8162ZM8.71387 12.0002C8.71387 10.1852 10.1854 8.71362 12.0004 8.71355C13.8155 8.71355 15.2867 10.1852 15.2867 12.0002C15.2867 13.8153 13.8157 15.2863 12.0006 15.2863C10.1855 15.2863 8.71387 13.8153 8.71387 12.0002Z" fill="#70BAAE"/>
  <path fill-rule="evenodd" clip-rule="evenodd" d="M12.0005 9.8667C13.1787 9.8667 14.1339 10.8218 14.1339 12.0001C14.1339 13.1782 13.1787 14.1334 12.0005 14.1334C10.8223 14.1334 9.86719 13.1782 9.86719 12.0001C9.86719 10.8218 10.8223 9.8667 12.0005 9.8667V9.8667Z" fill="#70BAAE"/>
</svg>