<svg xmlns="http://www.w3.org/2000/svg" width="24" height="24" viewBox="0 0 24 24" fill="none">
  <path fill-rule="evenodd" clip-rule="evenodd" d="M12 0C5.37258 0 0 5.37258 0 12C0 18.6274 5.37258 24 12 24C18.6274 24 24 18.6274 24 12C24 5.37258 18.6274 0 12 0ZM5.76074 9.93898H8.4802V18.1098H5.76074V9.93898ZM8.65899 7.4114C8.64134 6.61025 8.06844 6.00005 7.13813 6.00005C6.20781 6.00005 5.59961 6.61025 5.59961 7.4114C5.59961 8.19595 6.18984 8.82372 7.10282 8.82372H7.1202C8.06844 8.82372 8.65899 8.19595 8.65899 7.4114ZM15.1564 9.7471C16.9459 9.7471 18.2875 10.9152 18.2875 13.4249L18.2874 18.1098H15.568V13.7384C15.568 12.6404 15.1745 11.8912 14.1901 11.8912C13.4387 11.8912 12.9912 12.3963 12.7947 12.8841C12.7228 13.059 12.7051 13.3026 12.7051 13.5468V18.11H9.98535C9.98535 18.11 10.0212 10.7059 9.98535 9.93919H12.7051V11.0965C13.0661 10.5402 13.7125 9.7471 15.1564 9.7471Z" fill="#70BAAE"/>
</svg>