<svg xmlns="http://www.w3.org/2000/svg" width="24" height="24" viewBox="0 0 24 24" fill="none">
  <path fill-rule="evenodd" clip-rule="evenodd" d="M0 11.9994C0 18.6263 5.37146 24 12 24C18.6272 24 24 18.6263 24 11.9994C24 5.37246 18.6272 0 12 0C5.37146 0 0 5.37246 0 11.9994ZM8.02166 22.1262C3.97668 20.5415 1.11035 16.6059 1.11035 11.9995C1.11035 5.9921 5.97925 1.12476 11.9857 1.12476C17.9921 1.12476 22.861 5.9921 22.861 11.9995C22.861 18.0056 17.9921 22.8742 11.9857 22.8742C10.8636 22.8742 9.78259 22.7046 8.76588 22.3884C9.20804 21.6661 9.87128 20.4823 10.1168 19.5376C10.2492 19.0287 10.7942 16.953 10.7942 16.953C11.1489 17.629 12.1849 18.2022 13.2877 18.2022C16.5666 18.2022 18.9304 15.1857 18.9304 11.4378C18.9304 7.84547 15.9985 5.15667 12.226 5.15667C7.53323 5.15667 5.04094 8.30817 5.04094 11.7386C5.04094 13.3323 5.88927 15.3194 7.2466 15.9517C7.45354 16.0468 7.56408 16.0044 7.61164 15.8052C7.62621 15.7443 7.66501 15.5869 7.7115 15.3984C7.77982 15.1213 7.86474 14.7768 7.91369 14.5726C7.9394 14.4621 7.92655 14.3683 7.83786 14.2603C7.38799 13.7153 7.02937 12.7128 7.02937 11.7784C7.02937 9.3801 8.84557 7.05888 11.9394 7.05888C14.6116 7.05888 16.4818 8.87884 16.4818 11.4828C16.4818 14.4248 14.996 16.4633 13.0628 16.4633C11.996 16.4633 11.1965 15.5816 11.4523 14.4981C11.5632 14.0309 11.7116 13.5506 11.8559 13.0835C12.111 12.2577 12.3533 11.4734 12.3533 10.8774C12.3533 10.042 11.9047 9.34539 10.978 9.34539C9.88542 9.34539 9.01009 10.4739 9.01009 11.9866C9.01009 12.9493 9.33529 13.601 9.33529 13.601C9.33529 13.601 8.25688 18.1573 8.06022 19.0055C7.84171 19.9464 7.92655 21.2663 8.02166 22.1262Z" fill="#70BAAE"/>
</svg>