<svg xmlns="http://www.w3.org/2000/svg" width="24" height="24" viewBox="0 0 24 24" fill="none">
  <path fill-rule="evenodd" clip-rule="evenodd" d="M12 0C5.37258 0 0 5.37258 0 12C0 18.6274 5.37258 24 12 24C18.6274 24 24 18.6274 24 12C24 5.37258 18.6274 0 12 0ZM17.0004 7.87466C17.5512 8.0258 17.9849 8.47111 18.1321 9.03661C18.3996 10.0615 18.3996 12.2 18.3996 12.2C18.3996 12.2 18.3996 14.3384 18.1321 15.3634C17.9849 15.9289 17.5512 16.3742 17.0004 16.5254C16.0023 16.8 11.9996 16.8 11.9996 16.8C11.9996 16.8 7.99692 16.8 6.99874 16.5254C6.44797 16.3742 6.01423 15.9289 5.86703 15.3634C5.59961 14.3384 5.59961 12.2 5.59961 12.2C5.59961 12.2 5.59961 10.0615 5.86703 9.03661C6.01423 8.47111 6.44797 8.0258 6.99874 7.87466C7.99692 7.6 11.9996 7.6 11.9996 7.6C11.9996 7.6 16.0023 7.6 17.0004 7.87466Z" fill="#70BAAE"/>
  <path fill-rule="evenodd" clip-rule="evenodd" d="M10.7998 14.3999V10.3999L13.9998 12.4L10.7998 14.3999Z" fill="#70BAAE"/>
</svg>